<svg width="350" height="90" viewBox="0 0 542 90" fill="none" xmlns="http://www.w3.org/2000/svg">
<path d="M48.45 89.5C38.65 89.5 30.1 87.65 22.8 83.95C15.6 80.15 10 74.95 6 68.35C2 61.65 4.24683e-07 53.9 4.24683e-07 45.1C4.24683e-07 36.3 1.95 28.55 5.85 21.85C9.85 15.15 15.3 9.95 22.2 6.25C29.2 2.55 37.3 0.699997 46.5 0.699997C55.7 0.699997 63.2 2.65 69 6.54999C74.8 10.45 78.75 15.45 80.85 21.55L75.3 19.3V2.2H89.7V31.3H77.25C74.65 26 71.15 21.95 66.75 19.15C62.35 16.35 56.95 14.95 50.55 14.95C44.75 14.95 39.65 16.15 35.25 18.55C30.95 20.85 27.6 24.25 25.2 28.75C22.9 33.15 21.75 38.45 21.75 44.65C21.75 50.95 22.85 56.4 25.05 61C27.35 65.5 30.55 69 34.65 71.5C38.85 73.9 43.75 75.1 49.35 75.1C52.85 75.1 56.1 74.65 59.1 73.75C62.1 72.85 64.7 71.5 66.9 69.7C69.1 67.8 70.8 65.45 72 62.65C73.2 59.85 73.8 56.55 73.8 52.75L81.6 55.3H57.6V42.4H93.6V47.95C93.6 54.75 92.5 60.75 90.3 65.95C88.2 71.05 85.15 75.35 81.15 78.85C77.15 82.35 72.35 85 66.75 86.8C61.25 88.6 55.15 89.5 48.45 89.5ZM138.427 89.65C131.727 89.65 125.827 88.4 120.727 85.9C115.627 83.3 111.627 79.65 108.727 74.95C105.827 70.25 104.377 64.65 104.377 58.15C104.377 51.85 105.777 46.35 108.577 41.65C111.377 36.95 115.177 33.3 119.977 30.7C124.877 28.1 130.377 26.8 136.477 26.8C142.677 26.8 147.977 28.1 152.377 30.7C156.877 33.3 160.277 36.9 162.577 41.5C164.977 46.1 166.177 51.45 166.177 57.55V61.3H115.777L115.927 52.75H149.077C149.077 49.75 148.527 47.25 147.427 45.25C146.427 43.15 144.927 41.6 142.927 40.6C141.027 39.5 138.777 38.95 136.177 38.95C133.177 38.95 130.577 39.65 128.377 41.05C126.277 42.45 124.627 44.5 123.427 47.2C122.227 49.8 121.627 53 121.627 56.8C121.627 60.9 122.427 64.4 124.027 67.3C125.627 70.1 127.777 72.25 130.477 73.75C133.277 75.25 136.527 76 140.227 76C144.027 76 147.627 75.3 151.027 73.9C154.527 72.5 157.577 70.65 160.177 68.35L165.427 79.3C162.327 82.3 158.477 84.8 153.877 86.8C149.377 88.7 144.227 89.65 138.427 89.65ZM205.778 89.65C199.278 89.65 193.528 88.35 188.528 85.75C183.628 83.15 179.828 79.5 177.128 74.8C174.428 70 173.078 64.45 173.078 58.15C173.078 51.75 174.428 46.25 177.128 41.65C179.828 36.95 183.628 33.3 188.528 30.7C193.528 28.1 199.278 26.8 205.778 26.8C212.378 26.8 218.128 28.1 223.028 30.7C228.028 33.3 231.878 36.95 234.578 41.65C237.378 46.25 238.778 51.7 238.778 58C238.778 64.3 237.378 69.85 234.578 74.65C231.878 79.35 228.028 83.05 223.028 85.75C218.128 88.35 212.378 89.65 205.778 89.65ZM205.778 75.85C208.978 75.85 211.728 75.15 214.028 73.75C216.428 72.25 218.278 70.2 219.578 67.6C220.878 64.9 221.528 61.7 221.528 58C221.528 54.4 220.878 51.3 219.578 48.7C218.278 46.1 216.428 44.1 214.028 42.7C211.728 41.3 208.978 40.6 205.778 40.6C202.678 40.6 199.978 41.3 197.678 42.7C195.378 44.1 193.578 46.15 192.278 48.85C190.978 51.45 190.328 54.55 190.328 58.15C190.328 61.75 190.978 64.9 192.278 67.6C193.578 70.2 195.378 72.25 197.678 73.75C199.978 75.15 202.678 75.85 205.778 75.85ZM295.548 89.65C288.648 89.65 282.298 88.6 276.498 86.5C270.798 84.4 265.798 81.4 261.498 77.5C257.198 73.6 253.898 68.95 251.598 63.55C249.298 58.05 248.148 51.9 248.148 45.1C248.148 36.2 250.098 28.4 253.998 21.7C257.898 15 263.248 9.85 270.048 6.25C276.948 2.55 284.848 0.699997 293.748 0.699997C299.748 0.699997 305.048 1.6 309.648 3.4C314.348 5.09999 318.198 7.6 321.198 10.9C324.198 14.1 326.248 17.8 327.348 22L322.398 19.3V2.2H336.348V31L324.348 31.15C321.548 25.65 317.998 21.6 313.698 19C309.498 16.3 304.298 14.95 298.098 14.95C292.098 14.95 286.948 16.25 282.648 18.85C278.448 21.35 275.148 24.85 272.748 29.35C270.448 33.85 269.298 39 269.298 44.8C269.298 49.4 269.948 53.55 271.248 57.25C272.648 60.95 274.548 64.15 276.948 66.85C279.448 69.55 282.348 71.65 285.648 73.15C289.048 74.55 292.748 75.25 296.748 75.25C300.948 75.25 304.748 74.55 308.148 73.15C311.548 71.65 314.448 69.45 316.848 66.55C319.348 63.55 321.248 59.8 322.548 55.3L338.448 61.45C336.648 67.55 333.748 72.7 329.748 76.9C325.848 81 320.998 84.15 315.198 86.35C309.398 88.45 302.848 89.55 295.548 89.65ZM348.238 88V76.75H357.088V11.8H348.388V0.699997H375.388V36.4L369.688 37.9C373.888 34.6 378.138 31.95 382.438 29.95C386.738 27.85 391.238 26.8 395.938 26.8C402.038 26.8 406.888 28.7 410.488 32.5C414.188 36.2 416.038 41.15 416.038 47.35V76.75H424.888V88H390.238V76.75H397.888V50.35C397.888 46.95 397.088 44.3 395.488 42.4C393.888 40.5 391.638 39.55 388.738 39.55C385.838 39.55 382.838 40.25 379.738 41.65C376.638 43.05 373.788 44.8 371.188 46.9L375.388 38.95V76.75H382.888V88H348.238ZM451.618 89.65C445.518 89.65 440.668 88 437.068 84.7C433.468 81.4 431.668 77.2 431.668 72.1C431.668 67.5 432.768 63.85 434.968 61.15C437.168 58.45 440.068 56.5 443.668 55.3C447.368 54.1 451.268 53.5 455.368 53.5C458.868 53.5 462.168 53.8 465.268 54.4C468.368 55 471.118 55.75 473.518 56.65L469.768 57.25V51.25C469.768 47.15 468.668 44.1 466.468 42.1C464.368 40.1 461.368 39.1 457.468 39.1C454.668 39.1 451.568 39.55 448.168 40.45C444.768 41.25 441.218 42.55 437.518 44.35L433.168 33.7C437.568 31.4 442.168 29.7 446.968 28.6C451.768 27.4 456.418 26.8 460.918 26.8C466.618 26.8 471.418 27.75 475.318 29.65C479.318 31.55 482.368 34.25 484.468 37.75C486.568 41.15 487.618 45.25 487.618 50.05V76.75H495.568V88H472.468L470.218 79H475.168C471.668 82.6 468.068 85.3 464.368 87.1C460.668 88.8 456.418 89.65 451.618 89.65ZM457.168 79.45C459.868 79.45 462.518 78.85 465.118 77.65C467.818 76.45 470.518 74.5 473.218 71.8L469.768 77.35V61.6L472.918 64.75C471.018 63.95 468.868 63.3 466.468 62.8C464.168 62.2 461.668 61.9 458.968 61.9C456.168 61.9 453.618 62.55 451.318 63.85C449.118 65.15 448.018 67.5 448.018 70.9C448.018 73.5 448.818 75.6 450.418 77.2C452.018 78.7 454.268 79.45 457.168 79.45ZM526.867 88C520.867 88 516.267 86.6 513.067 83.8C509.967 80.9 508.417 76.4 508.417 70.3V39.55H500.017V28.3H508.267V8.64999L526.567 4.75V28.3H540.817V39.55H526.567V67.6C526.567 70.9 527.117 73.2 528.217 74.5C529.317 75.8 531.217 76.45 533.917 76.45H541.567V88H526.867Z" fill="#069FF4"/>
</svg>
